<svg width="296" height="70" viewBox="0 0 296 70" fill="none" xmlns="http://www.w3.org/2000/svg">
<path d="M0.282602 25V0.859999H4.9746V20.886H17.2826V25H0.282602ZM27.8253 25.34C26.3973 25.34 25.1053 25.102 23.9493 24.626C22.7933 24.1273 21.8073 23.4587 20.9913 22.62C20.1753 21.7587 19.5406 20.784 19.0873 19.696C18.6566 18.5853 18.4413 17.418 18.4413 16.194C18.4413 14.494 18.8153 12.9413 19.5633 11.536C20.3339 10.1307 21.4219 9.00867 22.8273 8.17C24.2553 7.30867 25.9326 6.878 27.8593 6.878C29.8086 6.878 31.4746 7.30867 32.8573 8.17C34.2399 9.00867 35.2939 10.1307 36.0193 11.536C36.7673 12.9187 37.1413 14.4147 37.1413 16.024C37.1413 16.296 37.1299 16.5793 37.1073 16.874C37.0846 17.146 37.0619 17.3727 37.0393 17.554H23.2693C23.3599 18.4607 23.6206 19.254 24.0513 19.934C24.5046 20.614 25.0713 21.1353 25.7513 21.498C26.4539 21.838 27.2019 22.008 27.9953 22.008C28.9019 22.008 29.7519 21.7927 30.5453 21.362C31.3613 20.9087 31.9166 20.3193 32.2113 19.594L36.1213 20.682C35.6906 21.5887 35.0673 22.3933 34.2513 23.096C33.4579 23.7987 32.5173 24.354 31.4293 24.762C30.3413 25.1473 29.1399 25.34 27.8253 25.34ZM23.1673 14.664H32.4833C32.3926 13.7573 32.1319 12.9753 31.7013 12.318C31.2933 11.638 30.7493 11.1167 30.0693 10.754C29.3893 10.3687 28.6299 10.176 27.7913 10.176C26.9753 10.176 26.2273 10.3687 25.5473 10.754C24.8899 11.1167 24.3459 11.638 23.9153 12.318C23.5073 12.9753 23.2579 13.7573 23.1673 14.664ZM50.4268 24.082C50.0414 24.2407 49.5768 24.422 49.0328 24.626C48.4888 24.83 47.8994 24.9887 47.2648 25.102C46.6528 25.238 46.0294 25.306 45.3948 25.306C44.5561 25.306 43.7854 25.1587 43.0828 24.864C42.3801 24.5693 41.8134 24.1047 41.3828 23.47C40.9748 22.8127 40.7708 21.9627 40.7708 20.92V10.686H38.4248V7.184H40.7708V1.404H45.3268V7.184H49.0668V10.686H45.3268V19.39C45.3494 20.002 45.5194 20.444 45.8368 20.716C46.1541 20.988 46.5508 21.124 47.0268 21.124C47.5028 21.124 47.9674 21.0447 48.4208 20.886C48.8741 20.7273 49.2368 20.5913 49.5088 20.478L50.4268 24.082ZM51.2802 8.918L52.0622 4.77H50.7022V0.179999H55.2582V4.838L54.0682 8.918H51.2802ZM63.1135 25.34C61.5949 25.34 60.1442 25.0907 58.7615 24.592C57.3789 24.0933 56.1889 23.3567 55.1915 22.382L56.8235 19.424C57.8889 20.2853 58.9315 20.92 59.9515 21.328C60.9942 21.736 61.9915 21.94 62.9435 21.94C63.8275 21.94 64.5302 21.7813 65.0515 21.464C65.5955 21.1467 65.8675 20.6707 65.8675 20.036C65.8675 19.6053 65.7202 19.2767 65.4255 19.05C65.1309 18.8007 64.7002 18.5853 64.1335 18.404C63.5895 18.2227 62.9209 18.0187 62.1275 17.792C60.8129 17.3613 59.7135 16.942 58.8295 16.534C57.9455 16.126 57.2769 15.616 56.8235 15.004C56.3929 14.3693 56.1775 13.5647 56.1775 12.59C56.1775 11.4113 56.4722 10.4027 57.0615 9.564C57.6735 8.70267 58.5122 8.034 59.5775 7.558C60.6655 7.082 61.9349 6.844 63.3855 6.844C64.6549 6.844 65.8562 7.048 66.9895 7.456C68.1229 7.84133 69.1542 8.476 70.0835 9.36L68.2475 12.25C67.3409 11.5473 66.4795 11.0373 65.6635 10.72C64.8475 10.38 64.0202 10.21 63.1815 10.21C62.7055 10.21 62.2522 10.2667 61.8215 10.38C61.4135 10.4933 61.0735 10.686 60.8015 10.958C60.5522 11.2073 60.4275 11.57 60.4275 12.046C60.4275 12.4767 60.5409 12.8167 60.7675 13.066C61.0169 13.2927 61.3795 13.4967 61.8555 13.678C62.3542 13.8593 62.9549 14.0633 63.6575 14.29C65.0855 14.698 66.2869 15.1173 67.2615 15.548C68.2589 15.9787 69.0069 16.5113 69.5055 17.146C70.0042 17.758 70.2535 18.608 70.2535 19.696C70.2535 21.464 69.6075 22.8467 68.3155 23.844C67.0235 24.8413 65.2895 25.34 63.1135 25.34ZM96.3443 7.184C96.1856 7.02533 95.891 6.81 95.4603 6.538C95.0523 6.266 94.5423 6.00533 93.9303 5.756C93.341 5.50667 92.695 5.29133 91.9923 5.11C91.2896 4.906 90.5756 4.804 89.8503 4.804C88.581 4.804 87.6176 5.042 86.9603 5.518C86.3256 5.994 86.0083 6.66267 86.0083 7.524C86.0083 8.18133 86.2123 8.70267 86.6203 9.088C87.0283 9.47333 87.6403 9.802 88.4563 10.074C89.2723 10.346 90.2923 10.6407 91.5163 10.958C93.103 11.3433 94.4743 11.8193 95.6303 12.386C96.809 12.93 97.7043 13.6553 98.3163 14.562C98.951 15.446 99.2683 16.6247 99.2683 18.098C99.2683 19.39 99.0303 20.5007 98.5543 21.43C98.0783 22.3367 97.421 23.0733 96.5823 23.64C95.7436 24.2067 94.7916 24.626 93.7263 24.898C92.661 25.1473 91.5276 25.272 90.3263 25.272C89.125 25.272 87.9236 25.1473 86.7223 24.898C85.521 24.6487 84.365 24.2973 83.2543 23.844C82.1436 23.368 81.1236 22.8013 80.1943 22.144L82.2683 18.098C82.4723 18.302 82.835 18.574 83.3563 18.914C83.8776 19.2313 84.5123 19.56 85.2603 19.9C86.0083 20.2173 86.8243 20.4893 87.7083 20.716C88.5923 20.9427 89.4876 21.056 90.3943 21.056C91.6636 21.056 92.627 20.8407 93.2843 20.41C93.9416 19.9793 94.2703 19.3673 94.2703 18.574C94.2703 17.8487 94.0096 17.282 93.4883 16.874C92.967 16.466 92.2416 16.1147 91.3123 15.82C90.383 15.5027 89.2836 15.1627 88.0143 14.8C86.4956 14.3693 85.2263 13.8933 84.2063 13.372C83.1863 12.828 82.427 12.148 81.9283 11.332C81.4296 10.516 81.1803 9.496 81.1803 8.272C81.1803 6.61733 81.5656 5.23467 82.3363 4.124C83.1296 2.99067 84.195 2.14067 85.5323 1.574C86.8696 0.984666 88.3543 0.689999 89.9863 0.689999C91.1196 0.689999 92.185 0.814665 93.1823 1.064C94.2023 1.31333 95.1543 1.642 96.0383 2.05C96.9223 2.458 97.7156 2.9 98.4183 3.376L96.3443 7.184ZM112.649 24.082C112.264 24.2407 111.799 24.422 111.255 24.626C110.711 24.83 110.122 24.9887 109.487 25.102C108.875 25.238 108.252 25.306 107.617 25.306C106.779 25.306 106.008 25.1587 105.305 24.864C104.603 24.5693 104.036 24.1047 103.605 23.47C103.197 22.8127 102.993 21.9627 102.993 20.92V10.686H100.647V7.184H102.993V1.404H107.549V7.184H111.289V10.686H107.549V19.39C107.572 20.002 107.742 20.444 108.059 20.716C108.377 20.988 108.773 21.124 109.249 21.124C109.725 21.124 110.19 21.0447 110.643 20.886C111.097 20.7273 111.459 20.5913 111.731 20.478L112.649 24.082ZM113.798 19.73C113.798 18.574 114.116 17.5653 114.75 16.704C115.408 15.82 116.314 15.14 117.47 14.664C118.626 14.188 119.952 13.95 121.448 13.95C122.196 13.95 122.956 14.0067 123.726 14.12C124.497 14.2333 125.166 14.4147 125.732 14.664V13.712C125.732 12.5787 125.392 11.706 124.712 11.094C124.055 10.482 123.069 10.176 121.754 10.176C120.78 10.176 119.85 10.346 118.966 10.686C118.082 11.026 117.153 11.5247 116.178 12.182L114.716 9.19C115.895 8.41933 117.096 7.84133 118.32 7.456C119.567 7.07067 120.87 6.878 122.23 6.878C124.769 6.878 126.741 7.51267 128.146 8.782C129.574 10.0513 130.288 11.8647 130.288 14.222V19.9C130.288 20.376 130.368 20.716 130.526 20.92C130.708 21.124 130.991 21.2487 131.376 21.294V25C130.968 25.068 130.594 25.1247 130.254 25.17C129.937 25.2153 129.665 25.238 129.438 25.238C128.532 25.238 127.84 25.034 127.364 24.626C126.911 24.218 126.628 23.7193 126.514 23.13L126.412 22.212C125.642 23.2093 124.678 23.98 123.522 24.524C122.366 25.068 121.188 25.34 119.986 25.34C118.808 25.34 117.742 25.102 116.79 24.626C115.861 24.1273 115.124 23.4587 114.58 22.62C114.059 21.7587 113.798 20.7953 113.798 19.73ZM124.882 20.648C125.132 20.376 125.336 20.104 125.494 19.832C125.653 19.56 125.732 19.3107 125.732 19.084V17.282C125.188 17.0553 124.599 16.8853 123.964 16.772C123.33 16.636 122.729 16.568 122.162 16.568C120.984 16.568 120.009 16.8287 119.238 17.35C118.49 17.8487 118.116 18.5173 118.116 19.356C118.116 19.8093 118.241 20.24 118.49 20.648C118.74 21.056 119.102 21.3847 119.578 21.634C120.054 21.8833 120.621 22.008 121.278 22.008C121.958 22.008 122.627 21.8833 123.284 21.634C123.942 21.362 124.474 21.0333 124.882 20.648ZM145.154 11.128C143.771 11.128 142.536 11.4 141.448 11.944C140.36 12.4653 139.578 13.2247 139.102 14.222V25H134.546V7.184H138.728V10.992C139.362 9.768 140.167 8.80467 141.142 8.102C142.116 7.39933 143.148 7.014 144.236 6.946C144.485 6.946 144.678 6.946 144.814 6.946C144.95 6.946 145.063 6.95733 145.154 6.98V11.128ZM158.37 24.082C157.985 24.2407 157.52 24.422 156.976 24.626C156.432 24.83 155.843 24.9887 155.208 25.102C154.596 25.238 153.973 25.306 153.338 25.306C152.499 25.306 151.729 25.1587 151.026 24.864C150.323 24.5693 149.757 24.1047 149.326 23.47C148.918 22.8127 148.714 21.9627 148.714 20.92V10.686H146.368V7.184H148.714V1.404H153.27V7.184H157.01V10.686H153.27V19.39C153.293 20.002 153.463 20.444 153.78 20.716C154.097 20.988 154.494 21.124 154.97 21.124C155.446 21.124 155.911 21.0447 156.364 20.886C156.817 20.7273 157.18 20.5913 157.452 20.478L158.37 24.082ZM167.199 20.07C167.494 20.274 168.015 20.5233 168.763 20.818C169.511 21.09 170.395 21.226 171.415 21.226C172.299 21.226 173.025 21.0787 173.591 20.784C174.158 20.4667 174.589 20.002 174.883 19.39C175.201 18.778 175.405 17.9847 175.495 17.01C175.609 16.0353 175.665 14.868 175.665 13.508V0.859999H180.357V13.134C180.357 14.9473 180.255 16.602 180.051 18.098C179.847 19.594 179.451 20.886 178.861 21.974C178.272 23.062 177.377 23.9007 176.175 24.49C174.997 25.0793 173.421 25.374 171.449 25.374C170.361 25.374 169.387 25.2493 168.525 25C167.664 24.7507 166.871 24.3767 166.145 23.878L167.199 20.07ZM192.612 25.34C191.161 25.34 189.858 25.102 188.702 24.626C187.546 24.1273 186.56 23.4473 185.744 22.586C184.95 21.7247 184.338 20.7387 183.908 19.628C183.477 18.5173 183.262 17.35 183.262 16.126C183.262 14.8793 183.477 13.7007 183.908 12.59C184.338 11.4793 184.95 10.4933 185.744 9.632C186.56 8.77067 187.546 8.102 188.702 7.626C189.858 7.12733 191.161 6.878 192.612 6.878C194.062 6.878 195.354 7.12733 196.488 7.626C197.644 8.102 198.63 8.77067 199.446 9.632C200.262 10.4933 200.874 11.4793 201.282 12.59C201.712 13.7007 201.928 14.8793 201.928 16.126C201.928 17.35 201.712 18.5173 201.282 19.628C200.874 20.7387 200.262 21.7247 199.446 22.586C198.652 23.4473 197.678 24.1273 196.522 24.626C195.366 25.102 194.062 25.34 192.612 25.34ZM187.954 16.126C187.954 17.1687 188.158 18.098 188.566 18.914C188.974 19.7073 189.529 20.3307 190.232 20.784C190.934 21.2373 191.728 21.464 192.612 21.464C193.473 21.464 194.255 21.2373 194.958 20.784C195.66 20.308 196.216 19.6733 196.624 18.88C197.054 18.064 197.27 17.1347 197.27 16.092C197.27 15.072 197.054 14.154 196.624 13.338C196.216 12.522 195.66 11.8873 194.958 11.434C194.255 10.9807 193.473 10.754 192.612 10.754C191.728 10.754 190.934 10.992 190.232 11.468C189.529 11.9213 188.974 12.556 188.566 13.372C188.158 14.1653 187.954 15.0833 187.954 16.126ZM204.833 18.336V7.184H209.389V17.35C209.389 18.71 209.638 19.7413 210.137 20.444C210.635 21.124 211.372 21.464 212.347 21.464C212.936 21.464 213.514 21.3507 214.081 21.124C214.67 20.8747 215.203 20.512 215.679 20.036C216.177 19.56 216.597 18.9593 216.937 18.234V7.184H221.493V19.9C221.493 20.376 221.572 20.716 221.731 20.92C221.912 21.124 222.195 21.2487 222.581 21.294V25C222.127 25.068 221.742 25.1133 221.425 25.136C221.13 25.1813 220.858 25.204 220.609 25.204C219.793 25.204 219.124 25.0227 218.603 24.66C218.104 24.2747 217.809 23.7533 217.719 23.096L217.617 21.668C216.823 22.8693 215.803 23.7873 214.557 24.422C213.31 25.034 211.939 25.34 210.443 25.34C208.607 25.34 207.213 24.7507 206.261 23.572C205.309 22.3707 204.833 20.6253 204.833 18.336ZM236.628 11.128C235.246 11.128 234.01 11.4 232.922 11.944C231.834 12.4653 231.052 13.2247 230.576 14.222V25H226.02V7.184H230.202V10.992C230.837 9.768 231.642 8.80467 232.616 8.102C233.591 7.39933 234.622 7.014 235.71 6.946C235.96 6.946 236.152 6.946 236.288 6.946C236.424 6.946 236.538 6.95733 236.628 6.98V11.128ZM255.727 25H251.171V15.004C251.171 13.576 250.921 12.5333 250.423 11.876C249.924 11.2187 249.233 10.89 248.349 10.89C247.737 10.89 247.113 11.0487 246.479 11.366C245.867 11.6833 245.311 12.1253 244.813 12.692C244.314 13.236 243.951 13.8707 243.725 14.596V25H239.169V7.184H243.283V10.482C243.736 9.71133 244.314 9.06533 245.017 8.544C245.719 8 246.524 7.592 247.431 7.32C248.36 7.02533 249.335 6.878 250.355 6.878C251.465 6.878 252.372 7.082 253.075 7.49C253.8 7.87533 254.344 8.408 254.707 9.088C255.092 9.74533 255.353 10.4933 255.489 11.332C255.647 12.1707 255.727 13.0207 255.727 13.882V25ZM267.95 25.34C266.522 25.34 265.23 25.102 264.074 24.626C262.918 24.1273 261.932 23.4587 261.116 22.62C260.3 21.7587 259.666 20.784 259.212 19.696C258.782 18.5853 258.566 17.418 258.566 16.194C258.566 14.494 258.94 12.9413 259.688 11.536C260.459 10.1307 261.547 9.00867 262.952 8.17C264.38 7.30867 266.058 6.878 267.984 6.878C269.934 6.878 271.6 7.30867 272.982 8.17C274.365 9.00867 275.419 10.1307 276.144 11.536C276.892 12.9187 277.266 14.4147 277.266 16.024C277.266 16.296 277.255 16.5793 277.232 16.874C277.21 17.146 277.187 17.3727 277.164 17.554H263.394C263.485 18.4607 263.746 19.254 264.176 19.934C264.63 20.614 265.196 21.1353 265.876 21.498C266.579 21.838 267.327 22.008 268.12 22.008C269.027 22.008 269.877 21.7927 270.67 21.362C271.486 20.9087 272.042 20.3193 272.336 19.594L276.246 20.682C275.816 21.5887 275.192 22.3933 274.376 23.096C273.583 23.7987 272.642 24.354 271.554 24.762C270.466 25.1473 269.265 25.34 267.95 25.34ZM263.292 14.664H272.608C272.518 13.7573 272.257 12.9753 271.826 12.318C271.418 11.638 270.874 11.1167 270.194 10.754C269.514 10.3687 268.755 10.176 267.916 10.176C267.1 10.176 266.352 10.3687 265.672 10.754C265.015 11.1167 264.471 11.638 264.04 12.318C263.632 12.9753 263.383 13.7573 263.292 14.664ZM279.851 28.468C280.259 28.5587 280.633 28.638 280.973 28.706C281.336 28.774 281.642 28.808 281.891 28.808C282.322 28.808 282.673 28.6947 282.945 28.468C283.24 28.264 283.523 27.8787 283.795 27.312C284.067 26.768 284.351 25.9973 284.645 25L277.607 7.184H282.333L287.127 20.342L291.343 7.184H295.695L288.215 28.536C287.943 29.3293 287.524 30.0433 286.957 30.678C286.413 31.3353 285.722 31.8453 284.883 32.208C284.067 32.5933 283.149 32.786 282.129 32.786C281.767 32.786 281.404 32.752 281.041 32.684C280.679 32.6387 280.282 32.548 279.851 32.412V28.468ZM77.6901 44.928H82.0421L84.7961 52.918L87.5841 44.928H91.9021L87.7541 55.91L90.8141 63.594L97.6481 44.86H102.748L93.0921 69H89.0461L84.7961 58.868L80.5801 69H76.5341L66.9121 44.86H71.9441L78.8121 63.594L81.8041 55.91L77.6901 44.928ZM104.779 69V51.184H109.335V69H104.779ZM104.779 48.702V44.18H109.335V48.702H104.779ZM124.121 68.082C123.736 68.2407 123.271 68.422 122.727 68.626C122.183 68.83 121.594 68.9887 120.959 69.102C120.347 69.238 119.724 69.306 119.089 69.306C118.25 69.306 117.48 69.1587 116.777 68.864C116.074 68.5693 115.508 68.1047 115.077 67.47C114.669 66.8127 114.465 65.9627 114.465 64.92V54.686H112.119V51.184H114.465V45.404H119.021V51.184H122.761V54.686H119.021V63.39C119.044 64.002 119.214 64.444 119.531 64.716C119.848 64.988 120.245 65.124 120.721 65.124C121.197 65.124 121.662 65.0447 122.115 64.886C122.568 64.7273 122.931 64.5913 123.203 64.478L124.121 68.082ZM143.052 69H138.496V59.004C138.496 57.6213 138.224 56.59 137.68 55.91C137.159 55.23 136.433 54.89 135.504 54.89C134.96 54.89 134.382 55.0487 133.77 55.366C133.158 55.6833 132.603 56.1253 132.104 56.692C131.628 57.236 131.277 57.8707 131.05 58.596V69H126.494V44.18H131.05V54.482C131.707 53.3487 132.603 52.4647 133.736 51.83C134.869 51.1953 136.105 50.878 137.442 50.878C138.598 50.878 139.539 51.082 140.264 51.49C140.989 51.8753 141.556 52.408 141.964 53.088C142.372 53.7453 142.655 54.4933 142.814 55.332C142.973 56.148 143.052 56.998 143.052 57.882V69ZM160.315 53.496V69H155.623V44.86H159.363L171.841 60.772V44.894H176.533V69H172.623L160.315 53.496ZM181.113 69V51.184H185.669V69H181.113ZM181.113 48.702V44.18H185.669V48.702H181.113ZM201.951 69L196.749 61.316L194.335 63.696V69H189.779V44.18H194.335V59.208L201.509 51.218H206.337L199.707 58.766L206.813 69H201.951ZM216.07 69.34C214.642 69.34 213.35 69.102 212.194 68.626C211.038 68.1273 210.052 67.4587 209.236 66.62C208.42 65.7587 207.786 64.784 207.332 63.696C206.902 62.5853 206.686 61.418 206.686 60.194C206.686 58.494 207.06 56.9413 207.808 55.536C208.579 54.1307 209.667 53.0087 211.072 52.17C212.5 51.3087 214.178 50.878 216.104 50.878C218.054 50.878 219.72 51.3087 221.102 52.17C222.485 53.0087 223.539 54.1307 224.264 55.536C225.012 56.9187 225.386 58.4147 225.386 60.024C225.386 60.296 225.375 60.5793 225.352 60.874C225.33 61.146 225.307 61.3727 225.284 61.554H211.514C211.605 62.4607 211.866 63.254 212.296 63.934C212.75 64.614 213.316 65.1353 213.996 65.498C214.699 65.838 215.447 66.008 216.24 66.008C217.147 66.008 217.997 65.7927 218.79 65.362C219.606 64.9087 220.162 64.3193 220.456 63.594L224.366 64.682C223.936 65.5887 223.312 66.3933 222.496 67.096C221.703 67.7987 220.762 68.354 219.674 68.762C218.586 69.1473 217.385 69.34 216.07 69.34ZM211.412 58.664H220.728C220.638 57.7573 220.377 56.9753 219.946 56.318C219.538 55.638 218.994 55.1167 218.314 54.754C217.634 54.3687 216.875 54.176 216.036 54.176C215.22 54.176 214.472 54.3687 213.792 54.754C213.135 55.1167 212.591 55.638 212.16 56.318C211.752 56.9753 211.503 57.7573 211.412 58.664Z" fill="#ECECEC"/>
</svg>
