<svg width="263" height="50" viewBox="0 0 263 50" fill="none" xmlns="http://www.w3.org/2000/svg">
<path d="M20.7177 3.98H29.0377L34.3027 19.255L39.6327 3.98H47.8877L39.9577 24.975L45.8077 39.665L58.8727 3.85H68.6227L50.1627 50H42.4277L34.3027 30.63L26.2427 50H18.5077L0.112717 3.85H9.73272L22.8627 39.665L28.5827 24.975L20.7177 3.98ZM105.395 42.135V50H73.3505V3.85H104.81V11.715H82.3205V22.83H101.755V30.11H82.3205V42.135H105.395ZM124.934 3.85H134.034L150.999 50H141.769L137.479 38.495H121.359L117.134 50H107.904L124.934 3.85ZM135.854 32.19L129.484 13.145L122.854 32.19H135.854ZM156.06 50V3.85H176.47C178.594 3.85 180.544 4.28333 182.32 5.15C184.14 6.01666 185.7 7.18667 187 8.66C188.344 10.1333 189.362 11.78 190.055 13.6C190.792 15.42 191.16 17.2833 191.16 19.19C191.16 21.14 190.814 23.025 190.12 24.845C189.47 26.6217 188.517 28.1817 187.26 29.525C186.004 30.8683 184.53 31.9083 182.84 32.645L193.37 50H183.49L174 34.53H165.03V50H156.06ZM165.03 26.665H176.275C177.402 26.665 178.399 26.34 179.265 25.69C180.132 24.9967 180.825 24.0867 181.345 22.96C181.865 21.8333 182.125 20.5767 182.125 19.19C182.125 17.7167 181.822 16.4383 181.215 15.355C180.609 14.2283 179.829 13.34 178.875 12.69C177.965 12.04 176.969 11.715 175.885 11.715H165.03V26.665ZM232.752 28V5.458L222.729 22.969H221.013L210.951 5.458V28H208.221V0.309999H211.029L221.832 19.264L232.713 0.309999H235.482V28H232.752ZM262.196 25.582V28H243.593V0.309999H261.845V2.728H246.323V12.712H259.856V15.013H246.323V25.582H262.196Z" fill="white"/>
</svg>
